# xmcd
#
# Track frame offsets:
#	182
#	18155
#	37765
#	60270
#
# Disc length: 1100 seconds
#
# Revision: 2
# Processed by: cddbd v1.5.2PL0 Copyright (c) Steve Scherf et al.
# Submitted via: audiograbber 1.83.01
#
DISCID=1d044a04
DTITLE=James Taylor Quartet With Noel Mckoy - Love The Life ( CD Single )
DYEAR=1993
DGENRE=Acid Jazz
TTITLE0=Love The Life ( Revisited Edit )
TTITLE1=Higher World
TTITLE2=Love The Life ( 12 '' Revisited Remix )
TTITLE3=Breakout
EXTD=1993
EXTT0=
EXTT1=
EXTT2=
EXTT3=
PLAYORDER=
